<svg width="16" height="15" viewBox="0 0 16 15" fill="none" xmlns="http://www.w3.org/2000/svg">
<path d="M5.757 0.0710014C5.81335 0.104743 5.86249 0.149254 5.90163 0.201993C5.94077 0.254732 5.96914 0.314666 5.98511 0.37837C6.00108 0.442074 6.00435 0.508301 5.99472 0.573268C5.98509 0.638234 5.96276 0.700668 5.929 0.757001L3.383 5H12.617L10.07 0.757001C10.0018 0.643223 9.98167 0.507029 10.0139 0.378379C10.0462 0.249729 10.1282 0.139162 10.242 0.0710014C10.3558 0.00284074 10.492 -0.0173301 10.6206 0.0149262C10.7493 0.0471824 10.8598 0.129224 10.928 0.243001L13.783 5H15C15.2652 5 15.5196 5.10536 15.7071 5.29289C15.8946 5.48043 16 5.73479 16 6V7C16 7.26522 15.8946 7.51957 15.7071 7.70711C15.5196 7.89464 15.2652 8 15 8V12.5C15 13.163 14.7366 13.7989 14.2678 14.2678C13.7989 14.7366 13.163 15 12.5 15H3.5C2.83696 15 2.20107 14.7366 1.73223 14.2678C1.26339 13.7989 1 13.163 1 12.5V8C0.734784 8 0.48043 7.89464 0.292893 7.70711C0.105357 7.51957 0 7.26522 0 7V6C0 5.73479 0.105357 5.48043 0.292893 5.29289C0.48043 5.10536 0.734784 5 1 5H2.217L5.07 0.243001C5.10374 0.186655 5.14825 0.137509 5.20099 0.0983688C5.25373 0.0592289 5.31366 0.0308624 5.37737 0.0148899C5.44107 -0.00108257 5.5073 -0.00434812 5.57227 0.00527962C5.63723 0.0149074 5.69967 0.0372398 5.756 0.0710014H5.757ZM2 8V12.5C2 12.8978 2.15804 13.2794 2.43934 13.5607C2.72064 13.842 3.10218 14 3.5 14H12.5C12.8978 14 13.2794 13.842 13.5607 13.5607C13.842 13.2794 14 12.8978 14 12.5V8H2ZM1 6V7H15V6H1ZM4 9C4.13261 9 4.25979 9.05268 4.35355 9.14645C4.44732 9.24022 4.5 9.36739 4.5 9.5V12.5C4.5 12.6326 4.44732 12.7598 4.35355 12.8536C4.25979 12.9473 4.13261 13 4 13C3.86739 13 3.74021 12.9473 3.64645 12.8536C3.55268 12.7598 3.5 12.6326 3.5 12.5V9.5C3.5 9.36739 3.55268 9.24022 3.64645 9.14645C3.74021 9.05268 3.86739 9 4 9ZM6 9C6.13261 9 6.25979 9.05268 6.35355 9.14645C6.44732 9.24022 6.5 9.36739 6.5 9.5V12.5C6.5 12.6326 6.44732 12.7598 6.35355 12.8536C6.25979 12.9473 6.13261 13 6 13C5.86739 13 5.74021 12.9473 5.64645 12.8536C5.55268 12.7598 5.5 12.6326 5.5 12.5V9.5C5.5 9.36739 5.55268 9.24022 5.64645 9.14645C5.74021 9.05268 5.86739 9 6 9ZM8 9C8.13261 9 8.25979 9.05268 8.35355 9.14645C8.44732 9.24022 8.5 9.36739 8.5 9.5V12.5C8.5 12.6326 8.44732 12.7598 8.35355 12.8536C8.25979 12.9473 8.13261 13 8 13C7.86739 13 7.74021 12.9473 7.64645 12.8536C7.55268 12.7598 7.5 12.6326 7.5 12.5V9.5C7.5 9.36739 7.55268 9.24022 7.64645 9.14645C7.74021 9.05268 7.86739 9 8 9ZM10 9C10.1326 9 10.2598 9.05268 10.3536 9.14645C10.4473 9.24022 10.5 9.36739 10.5 9.5V12.5C10.5 12.6326 10.4473 12.7598 10.3536 12.8536C10.2598 12.9473 10.1326 13 10 13C9.86739 13 9.74021 12.9473 9.64645 12.8536C9.55268 12.7598 9.5 12.6326 9.5 12.5V9.5C9.5 9.36739 9.55268 9.24022 9.64645 9.14645C9.74021 9.05268 9.86739 9 10 9ZM12 9C12.1326 9 12.2598 9.05268 12.3536 9.14645C12.4473 9.24022 12.5 9.36739 12.5 9.5V12.5C12.5 12.6326 12.4473 12.7598 12.3536 12.8536C12.2598 12.9473 12.1326 13 12 13C11.8674 13 11.7402 12.9473 11.6464 12.8536C11.5527 12.7598 11.5 12.6326 11.5 12.5V9.5C11.5 9.36739 11.5527 9.24022 11.6464 9.14645C11.7402 9.05268 11.8674 9 12 9Z" fill="#333333"/>
</svg>
