<svg width="40" height="40" viewBox="0 0 40 40" fill="none" xmlns="http://www.w3.org/2000/svg">
<path d="M0 1.33333C0 0.979711 0.140476 0.640573 0.390524 0.390524C0.640573 0.140476 0.979711 0 1.33333 0H5.33333C5.63075 8.21639e-05 5.9196 0.0996018 6.15395 0.282733C6.3883 0.465863 6.55469 0.72209 6.62667 1.01067L7.70667 5.33333H38.6667C38.8624 5.33351 39.0558 5.37681 39.2329 5.46014C39.4101 5.54346 39.5667 5.66478 39.6917 5.81548C39.8167 5.96617 39.907 6.14254 39.9561 6.33205C40.0052 6.52156 40.012 6.71957 39.976 6.912L35.976 28.2453C35.9188 28.5509 35.7567 28.8268 35.5176 29.0255C35.2785 29.2242 34.9775 29.333 34.6667 29.3333H10.6667C10.3558 29.333 10.0548 29.2242 9.81576 29.0255C9.57668 28.8268 9.41453 28.5509 9.35733 28.2453L5.36 6.952L4.29333 2.66667H1.33333C0.979711 2.66667 0.640573 2.52619 0.390524 2.27614C0.140476 2.02609 0 1.68696 0 1.33333ZM8.272 8L11.7733 26.6667H33.56L37.0613 8H8.272ZM13.3333 29.3333C11.9188 29.3333 10.5623 29.8952 9.5621 30.8954C8.5619 31.8956 8 33.2522 8 34.6667C8 36.0812 8.5619 37.4377 9.5621 38.4379C10.5623 39.4381 11.9188 40 13.3333 40C14.7478 40 16.1044 39.4381 17.1046 38.4379C18.1048 37.4377 18.6667 36.0812 18.6667 34.6667C18.6667 33.2522 18.1048 31.8956 17.1046 30.8954C16.1044 29.8952 14.7478 29.3333 13.3333 29.3333ZM32 29.3333C30.5855 29.3333 29.229 29.8952 28.2288 30.8954C27.2286 31.8956 26.6667 33.2522 26.6667 34.6667C26.6667 36.0812 27.2286 37.4377 28.2288 38.4379C29.229 39.4381 30.5855 40 32 40C33.4145 40 34.771 39.4381 35.7712 38.4379C36.7714 37.4377 37.3333 36.0812 37.3333 34.6667C37.3333 33.2522 36.7714 31.8956 35.7712 30.8954C34.771 29.8952 33.4145 29.3333 32 29.3333ZM13.3333 32C14.0406 32 14.7189 32.281 15.219 32.7811C15.719 33.2811 16 33.9594 16 34.6667C16 35.3739 15.719 36.0522 15.219 36.5523C14.7189 37.0524 14.0406 37.3333 13.3333 37.3333C12.6261 37.3333 11.9478 37.0524 11.4477 36.5523C10.9476 36.0522 10.6667 35.3739 10.6667 34.6667C10.6667 33.9594 10.9476 33.2811 11.4477 32.7811C11.9478 32.281 12.6261 32 13.3333 32ZM32 32C32.7072 32 33.3855 32.281 33.8856 32.7811C34.3857 33.2811 34.6667 33.9594 34.6667 34.6667C34.6667 35.3739 34.3857 36.0522 33.8856 36.5523C33.3855 37.0524 32.7072 37.3333 32 37.3333C31.2928 37.3333 30.6145 37.0524 30.1144 36.5523C29.6143 36.0522 29.3333 35.3739 29.3333 34.6667C29.3333 33.9594 29.6143 33.2811 30.1144 32.7811C30.6145 32.281 31.2928 32 32 32Z" fill="white"/>
</svg>
