<svg width="15" height="14" viewBox="0 0 15 14" fill="none" xmlns="http://www.w3.org/2000/svg">
<path d="M13.8719 6.89062L7.83444 0.856244L7.42975 0.451556C7.33754 0.359957 7.21285 0.308548 7.08288 0.308548C6.95291 0.308548 6.82821 0.359957 6.736 0.451556L0.293815 6.89062C0.199332 6.98473 0.124661 7.09682 0.0742087 7.22027C0.0237565 7.34372 -0.00145411 7.47602 6.47651e-05 7.60937C0.00631477 8.15937 0.464127 8.59843 1.01413 8.59843H1.67819V13.6875H12.4876V8.59843H13.1657C13.4329 8.59843 13.6844 8.49374 13.8735 8.30468C13.9666 8.21189 14.0404 8.10155 14.0905 7.98005C14.1407 7.85855 14.1662 7.72831 14.1657 7.59687C14.1657 7.33124 14.061 7.07968 13.8719 6.89062ZM7.95788 12.5625H6.20788V9.37499H7.95788V12.5625ZM11.3626 7.47343V12.5625H8.95788V8.99999C8.95788 8.65468 8.67819 8.37499 8.33288 8.37499H5.83288C5.48756 8.37499 5.20788 8.65468 5.20788 8.99999V12.5625H2.80319V7.47343H1.30319L7.08444 1.69687L7.44538 2.05781L12.8641 7.47343H11.3626Z" fill="#333333"/>
</svg>
