<svg width="26" height="26" viewBox="0 0 26 26" fill="none" xmlns="http://www.w3.org/2000/svg">
<path d="M13 4.85333C12.1815 4.85333 11.3814 5.09604 10.7009 5.55077C10.0203 6.00549 9.4899 6.65181 9.17668 7.40799C8.86346 8.16418 8.7815 8.99626 8.94118 9.79901C9.10086 10.6018 9.495 11.3392 10.0738 11.9179C10.6525 12.4967 11.3899 12.8908 12.1927 13.0505C12.9954 13.2102 13.8275 13.1282 14.5837 12.815C15.3399 12.5018 15.9862 11.9713 16.4409 11.2908C16.8956 10.6103 17.1383 9.81015 17.1383 8.99167C17.1383 7.89411 16.7023 6.84151 15.9262 6.06542C15.1502 5.28933 14.0976 4.85333 13 4.85333ZM13 11.6856C12.4672 11.6856 11.9464 11.5276 11.5034 11.2316C11.0603 10.9355 10.7151 10.5148 10.5112 10.0226C10.3073 9.53033 10.2539 8.98868 10.3579 8.46611C10.4618 7.94355 10.7184 7.46355 11.0951 7.0868C11.4719 6.71005 11.9519 6.45348 12.4744 6.34954C12.997 6.24559 13.5387 6.29894 14.0309 6.50284C14.5232 6.70673 14.9439 7.05201 15.2399 7.49502C15.5359 7.93803 15.6939 8.45886 15.6939 8.99167C15.692 9.70488 15.4073 10.3882 14.9023 10.8919C14.3973 11.3955 13.7132 11.6783 13 11.6783V11.6856Z" fill="white"/>
<path d="M13 1.44444C10.7504 1.44632 8.59299 2.33833 6.99891 3.92563C5.40484 5.51294 4.50367 7.66656 4.49222 9.91611C4.49222 13.2889 6.38444 16.1128 7.77111 18.1711L8.02388 18.5467C9.40353 20.5462 10.8836 22.4746 12.4583 24.3244L13.0072 24.9672L13.5561 24.3244C15.1307 22.4745 16.6107 20.5461 17.9906 18.5467L18.2433 18.1639C19.6228 16.1056 21.515 13.2889 21.515 9.91611C21.5035 7.66531 20.6014 5.5106 19.0057 3.92309C17.4101 2.33558 15.2508 1.44441 13 1.44444ZM17.0372 17.3333L16.7772 17.7161C15.535 19.5794 13.8883 21.6667 13 22.6994C12.1478 21.6667 10.465 19.5794 9.22277 17.7161L8.97 17.3333C7.69166 15.4267 5.93666 12.8194 5.93666 9.88722C5.93666 8.95965 6.11936 8.04116 6.47433 7.1842C6.82929 6.32724 7.34957 5.54858 8.00547 4.89269C8.66136 4.2368 9.44001 3.71652 10.297 3.36155C11.1539 3.00659 12.0724 2.82389 13 2.82389C13.9276 2.82389 14.8461 3.00659 15.703 3.36155C16.56 3.71652 17.3386 4.2368 17.9945 4.89269C18.6504 5.54858 19.1707 6.32724 19.5257 7.1842C19.8806 8.04116 20.0633 8.95965 20.0633 9.88722C20.0633 12.8483 18.3156 15.4556 17.0372 17.3333Z" fill="white"/>
</svg>
